<svg width="4" height="17" viewBox="0 0 4 17" fill="none" xmlns="http://www.w3.org/2000/svg">
<path d="M2 2.08329L2 2.09246M2 8.49996L2 8.50913M2 14.9166L2 14.9258M2 2.99996C1.44771 2.99996 1 2.58955 1 2.08329C1 1.57703 1.44772 1.16663 2 1.16663C2.55228 1.16663 3 1.57703 3 2.08329C3 2.58955 2.55228 2.99996 2 2.99996ZM2 9.41663C1.44771 9.41663 0.999999 9.00622 0.999999 8.49996C0.999999 7.9937 1.44771 7.58329 2 7.58329C2.55228 7.58329 3 7.9937 3 8.49996C3 9.00622 2.55228 9.41663 2 9.41663ZM2 15.8333C1.44771 15.8333 0.999999 15.4229 0.999999 14.9166C0.999999 14.4104 1.44771 14 2 14C2.55228 14 3 14.4104 3 14.9166C3 15.4229 2.55228 15.8333 2 15.8333Z" stroke="#FE2001" stroke-width="1.5" stroke-linecap="round" stroke-linejoin="round"/>
</svg>
