<svg width="35" height="41" viewBox="0 0 35 41" fill="none" xmlns="http://www.w3.org/2000/svg">
<path d="M7.46711 0.197388C6.09663 0.197388 4.97533 1.31869 4.97533 2.68916V37.574C4.97533 38.9445 6.09663 40.0658 7.46711 40.0658H32.3849C33.7553 40.0658 34.8766 38.9445 34.8766 37.574V10.1645L24.9095 0.197388H7.46711Z" fill="#E2E5E7"/>
<path d="M27.4013 10.1645H34.8766L24.9095 0.197388V7.67272C24.9095 9.04319 26.0308 10.1645 27.4013 10.1645Z" fill="#B0B7BD"/>
<path d="M34.8766 17.6398L27.4013 10.1645H34.8766V17.6398Z" fill="#CAD1D8"/>
<path d="M29.9013 32.6522C29.9013 33.3374 29.3407 33.898 28.6554 33.898H1.24589C0.56065 33.898 0 33.3374 0 32.6522V20.1933C0 19.508 0.56065 18.9474 1.24589 18.9474H28.6554C29.3407 18.9474 29.9013 19.508 29.9013 20.1933V32.6522Z" fill="#4269F1"/>
<path d="M28.6472 33.8364H4.97533V35.0823H28.6472C29.3324 35.0823 29.8931 34.5216 29.8931 33.8364V32.5905C29.8931 33.2757 29.3324 33.8364 28.6472 33.8364Z" fill="#CAD1D8"/>
<path d="M9.82892 26.3411C9.82892 26.9429 9.71359 27.4468 9.48293 27.853C9.25728 28.2591 8.92884 28.565 8.49761 28.7706C8.07139 28.9762 7.55491 29.079 6.94817 29.079H5.43634V23.7086H7.10612C7.66272 23.7086 8.1441 23.8089 8.55026 24.0095C8.95642 24.21 9.26982 24.5059 9.49045 24.897C9.7161 25.2831 9.82892 25.7645 9.82892 26.3411ZM8.82103 26.3712C8.82103 25.945 8.75585 25.594 8.62547 25.3182C8.4951 25.0424 8.30205 24.8393 8.04632 24.709C7.79058 24.5736 7.47719 24.5059 7.10612 24.5059H6.3991V28.2742H6.97826C7.60004 28.2742 8.06136 28.1162 8.36222 27.8003C8.6681 27.4794 8.82103 27.003 8.82103 26.3712Z" fill="white"/>
<path d="M15.7734 26.3863C15.7734 26.8025 15.7207 27.181 15.6154 27.522C15.5152 27.858 15.3597 28.1488 15.1491 28.3945C14.9435 28.6402 14.6803 28.8283 14.3593 28.9586C14.0434 29.089 13.6724 29.1542 13.2462 29.1542C12.8149 29.1542 12.4389 29.089 12.1179 28.9586C11.802 28.8232 11.5413 28.6352 11.3357 28.3945C11.1301 28.1488 10.9747 27.8555 10.8694 27.5145C10.7691 27.1735 10.7189 26.7949 10.7189 26.3787C10.7189 25.8221 10.8092 25.3383 10.9897 24.9271C11.1752 24.5159 11.4535 24.1975 11.8246 23.9718C12.2007 23.7412 12.677 23.6259 13.2537 23.6259C13.8203 23.6259 14.2891 23.7412 14.6602 23.9718C15.0313 24.1975 15.3096 24.5184 15.4951 24.9346C15.6806 25.3458 15.7734 25.8297 15.7734 26.3863ZM11.7343 26.3863C11.7343 26.7924 11.787 27.1409 11.8923 27.4318C12.0026 27.7226 12.1681 27.9457 12.3887 28.1012C12.6144 28.2566 12.9002 28.3343 13.2462 28.3343C13.6022 28.3343 13.8905 28.2566 14.1111 28.1012C14.3318 27.9457 14.4947 27.7226 14.6 27.4318C14.7053 27.1409 14.758 26.7924 14.758 26.3863C14.758 25.7795 14.6402 25.3032 14.4045 24.9572C14.1688 24.6112 13.7852 24.4382 13.2537 24.4382C12.9027 24.4382 12.6144 24.5159 12.3887 24.6714C12.1681 24.8268 12.0026 25.0499 11.8923 25.3408C11.787 25.6316 11.7343 25.9801 11.7343 26.3863Z" fill="white"/>
<path d="M19.2035 24.4457C18.9578 24.4457 18.7397 24.4908 18.5491 24.5811C18.3586 24.6714 18.1956 24.8017 18.0602 24.9722C17.9299 25.1427 17.8296 25.3483 17.7594 25.589C17.6942 25.8297 17.6616 26.1004 17.6616 26.4013C17.6616 26.8075 17.7168 27.156 17.8271 27.4468C17.9374 27.7326 18.1054 27.9532 18.331 28.1087C18.5617 28.2641 18.85 28.3419 19.196 28.3419C19.4266 28.3419 19.6473 28.3193 19.8579 28.2742C20.0735 28.224 20.2991 28.1588 20.5348 28.0786V28.8985C20.3142 28.9887 20.0911 29.0539 19.8654 29.094C19.6448 29.1341 19.389 29.1542 19.0982 29.1542C18.5466 29.1542 18.0903 29.0414 17.7293 28.8157C17.3683 28.5851 17.1 28.2641 16.9245 27.853C16.749 27.4368 16.6612 26.9504 16.6612 26.3938C16.6612 25.9876 16.7164 25.6166 16.8267 25.2806C16.942 24.9446 17.105 24.6538 17.3156 24.4081C17.5312 24.1624 17.797 23.9718 18.1129 23.8365C18.4288 23.7011 18.7923 23.6334 19.2035 23.6334C19.4743 23.6334 19.74 23.666 20.0008 23.7312C20.2666 23.7913 20.5148 23.8766 20.7454 23.9869L20.4145 24.7767C20.2239 24.6914 20.0259 24.6162 19.8203 24.551C19.6197 24.4808 19.4141 24.4457 19.2035 24.4457Z" fill="white"/>
<path d="M25.768 29.079H24.6699L23.3536 26.9353L22.0298 29.079H21.0069L22.7895 26.296L21.1197 23.7086H22.1803L23.3988 25.7093L24.6097 23.7086H25.6402L23.9629 26.3336L25.768 29.079Z" fill="white"/>
</svg>
