<svg width="25" height="25" viewBox="0 0 24 25" fill="none" xmlns="http://www.w3.org/2000/svg">
<path fill-rule="evenodd" clip-rule="evenodd" d="M2.25 4.5C2.25 3.5335 3.0335 2.75 4 2.75H20C20.9665 2.75 21.75 3.5335 21.75 4.5V7.08579C21.75 7.54992 21.5656 7.99503 21.2374 8.32322L14.8232 14.7374C14.7763 14.7843 14.75 14.8479 14.75 14.9142V17.5C14.75 17.6989 14.671 17.8897 14.5303 18.0303L10.5303 22.0303C10.3158 22.2448 9.99324 22.309 9.71299 22.1929C9.43273 22.0768 9.25 21.8033 9.25 21.5V14.9142C9.25 14.8479 9.22366 14.7843 9.17678 14.7374L2.76256 8.32322C2.43437 7.99503 2.25 7.54991 2.25 7.08579V4.5ZM4 4.25C3.86193 4.25 3.75 4.36193 3.75 4.5V7.08579C3.75 7.15209 3.77634 7.21568 3.82322 7.26256L10.2374 13.6768C10.5656 14.005 10.75 14.4501 10.75 14.9142V19.6893L13.25 17.1893V14.9142C13.25 14.4501 13.4344 14.005 13.7626 13.6768L20.1768 7.26256C20.2237 7.21568 20.25 7.15209 20.25 7.08579V4.5C20.25 4.36193 20.1381 4.25 20 4.25H4Z" fill="#BFBFBF"/>
</svg>
