<svg width="35" height="41" viewBox="0 0 35 41" fill="none" xmlns="http://www.w3.org/2000/svg">
<path d="M7.46711 0.197388C6.09663 0.197388 4.97533 1.31869 4.97533 2.68916V37.574C4.97533 38.9445 6.09663 40.0658 7.46711 40.0658H32.3849C33.7553 40.0658 34.8766 38.9445 34.8766 37.574V10.1645L24.9095 0.197388H7.46711Z" fill="#E2E5E7"/>
<path d="M27.4013 10.1645H34.8766L24.9095 0.197388V7.67272C24.9095 9.04319 26.0308 10.1645 27.4013 10.1645Z" fill="#B0B7BD"/>
<path d="M34.8766 17.6398L27.4013 10.1645H34.8766V17.6398Z" fill="#CAD1D8"/>
<path d="M29.9013 32.6522C29.9013 33.3374 29.3407 33.898 28.6554 33.898H1.24589C0.56065 33.898 0 33.3374 0 32.6522V20.1933C0 19.508 0.56065 18.9474 1.24589 18.9474H28.6554C29.3407 18.9474 29.9013 19.508 29.9013 20.1933V32.6522Z" fill="#F15642"/>
<path d="M10.0647 23.8402C10.7617 23.8402 11.2682 23.9856 11.5841 24.2764C11.905 24.5673 12.0655 24.9684 12.0655 25.4799C12.0655 25.7105 12.0304 25.9312 11.9602 26.1418C11.89 26.3474 11.7721 26.5329 11.6067 26.6984C11.4412 26.8638 11.2231 26.9942 10.9523 27.0895C10.6865 27.1847 10.3556 27.2324 9.95944 27.2324H9.42542V29.2105H8.46266V23.8402H10.0647ZM10.0046 24.6375H9.42542V26.4351H9.86167C10.1224 26.4351 10.343 26.405 10.5236 26.3448C10.7091 26.2797 10.8495 26.1794 10.9448 26.044C11.04 25.9086 11.0877 25.7331 11.0877 25.5175C11.0877 25.2216 10.9999 25.001 10.8244 24.8556C10.6489 24.7102 10.3756 24.6375 10.0046 24.6375Z" fill="white"/>
<path d="M17.5121 26.4727C17.5121 27.0744 17.3968 27.5784 17.1661 27.9845C16.9405 28.3907 16.612 28.6966 16.1808 28.9022C15.7546 29.1078 15.2381 29.2105 14.6314 29.2105H13.1195V23.8402H14.7893C15.3459 23.8402 15.8273 23.9405 16.2335 24.141C16.6396 24.3416 16.953 24.6375 17.1737 25.0286C17.3993 25.4147 17.5121 25.8961 17.5121 26.4727ZM16.5042 26.5028C16.5042 26.0766 16.439 25.7256 16.3087 25.4498C16.1783 25.174 15.9852 24.9709 15.7295 24.8405C15.4738 24.7052 15.1604 24.6375 14.7893 24.6375H14.0823V28.4057H14.6615C15.2832 28.4057 15.7446 28.2478 16.0454 27.9319C16.3513 27.611 16.5042 27.1346 16.5042 26.5028Z" fill="white"/>
<path d="M19.6056 29.2105H18.6579V23.8402H21.7041V24.645H19.6056V26.2245H21.5612V27.0293H19.6056V29.2105Z" fill="white"/>
<path d="M28.6472 33.8364H4.97533V35.0823H28.6472C29.3324 35.0823 29.8931 34.5216 29.8931 33.8364V32.5905C29.8931 33.2757 29.3324 33.8364 28.6472 33.8364Z" fill="#CAD1D8"/>
</svg>
