<svg width="8" height="8" viewBox="0 0 8 8" fill="none" xmlns="http://www.w3.org/2000/svg">
<path d="M6.32358 7.21202C6.23569 7.212 6.14978 7.18593 6.07671 7.13709C6.00363 7.08825 5.94668 7.01885 5.91305 6.93765C5.87942 6.85645 5.87062 6.7671 5.88776 6.6809C5.9049 6.5947 5.94722 6.51551 6.00935 6.45336L6.4538 6.00891C6.53714 5.92546 6.65021 5.87852 6.76815 5.87844C6.88609 5.87836 6.99923 5.92513 7.08269 6.00847C7.16614 6.0918 7.21307 6.20488 7.21316 6.32282C7.21324 6.44076 7.16647 6.5539 7.08313 6.63735L6.63869 7.0818C6.55536 7.16515 6.44233 7.212 6.32447 7.21202H6.32358ZM3.8178 7.21202C3.72991 7.212 3.644 7.18593 3.57093 7.13709C3.49786 7.08825 3.44091 7.01885 3.40727 6.93765C3.37364 6.85645 3.36484 6.7671 3.38198 6.6809C3.39912 6.5947 3.44144 6.51551 3.50358 6.45336L6.4538 3.50313C6.53714 3.41968 6.65021 3.37275 6.76815 3.37266C6.88609 3.37258 6.99923 3.41935 7.08269 3.50269C7.16614 3.58603 7.21307 3.6991 7.21316 3.81704C7.21324 3.93498 7.16647 4.04812 7.08313 4.13158L4.13291 7.0818C4.04958 7.16515 3.93655 7.212 3.81869 7.21202H3.8178ZM1.22224 7.21202C1.13435 7.212 1.04844 7.18593 0.975372 7.13709C0.902301 7.08825 0.84535 7.01885 0.811719 6.93765C0.778088 6.85645 0.769287 6.7671 0.786428 6.6809C0.803569 6.5947 0.845883 6.51551 0.908021 6.45336L6.45335 0.908022C6.49462 0.866729 6.54361 0.833967 6.59754 0.811608C6.65146 0.789249 6.70926 0.777731 6.76764 0.77771C6.82602 0.777689 6.88383 0.789167 6.93777 0.811488C6.99171 0.833809 7.04073 0.866536 7.08202 0.9078C7.12331 0.949064 7.15608 0.998058 7.17843 1.05198C7.20079 1.10591 7.21231 1.16371 7.21233 1.22209C7.21235 1.28046 7.20088 1.33827 7.17856 1.39222C7.15623 1.44616 7.12351 1.49517 7.08224 1.53647L1.53646 7.0818C1.45313 7.16515 1.34011 7.212 1.22224 7.21202Z" fill="#8C8C8C"/>
</svg>
